<?xml version="1.0" encoding="utf-8"?>
<!-- Generator: Adobe Illustrator 23.0.3, SVG Export Plug-In . SVG Version: 6.00 Build 0)  -->
<svg version="1.2" baseProfile="tiny" id="Calque_1"
	 xmlns="http://www.w3.org/2000/svg" xmlns:xlink="http://www.w3.org/1999/xlink" x="0px" y="0px" viewBox="0 0 1000 1000"
	 xml:space="preserve">
<g>
	<path display="none" fill="#0C0C0C" d="M-95.3,934.63c0-304.01,0-608.03,0-912.04C-47-99.04,45.84-134.3,171.14-131.28
		c243.58,5.86,487.4,1.5,731.13,1.8c136.29,0.17,218.38,82.27,218.54,218.64c0.31,259.55,0.21,519.1-0.14,778.65
		c-0.03,20.4-1.57,41.13-5.43,61.13c-15.96,82.71-75.75,125.46-146.49,157.7c-304.01,0-608.03,0-912.04,0
		C-15.67,1057.67-66.67,1007.34-95.3,934.63z M1038.99,478.54c0-125.04,0.2-250.08-0.06-375.12
		C1038.7-3.74,995.84-47.45,890.16-47.57c-251.66-0.28-503.32-0.27-754.98,0C31.1-47.45-13.26-3.93-13.41,98.73
		c-0.36,253.24-0.37,506.48,0,759.73c0.15,102.56,44.66,146.21,148.64,146.32c251.66,0.27,503.32,0.28,754.98,0
		c105.38-0.12,148.49-44.15,148.71-151.13C1039.19,728.61,1038.99,603.58,1038.99,478.54z"/>
	<path display="none" fill="#FAFAFA" d="M968.75,1086.64c70.74-32.24,130.53-74.99,146.49-157.7c3.86-19.99,5.4-40.73,5.43-61.13
		c0.35-259.55,0.45-519.1,0.14-778.65c-0.16-136.38-82.26-218.48-218.54-218.64c-243.72-0.3-487.55,4.06-731.13-1.8
		C45.84-134.3-47-99.04-95.3,22.58c0-44.26,1.41-88.58-0.58-132.75c-1.05-23.17,4.35-29.58,28.76-29.43
		c200.74,1.2,401.49,0.68,602.24,0.68c188.1,0,376.21,0.67,564.31-0.77c26.33-0.2,31.64,5.29,31.57,31.59
		c-1.07,388.85-1.02,777.71-0.08,1166.56c0.06,24.39-6.24,29.8-29.41,28.76C1057.33,1085.22,1013.01,1086.64,968.75,1086.64z"/>
	<path display="none" fill="#FAFAFA" d="M-95.3,934.63c28.63,72.71,79.63,123.04,152.01,152.01c-44.34,0-88.71-1.01-132.99,0.52
		c-16.57,0.57-20.11-2.97-19.54-19.54C-94.29,1023.34-95.3,978.96-95.3,934.63z"/>
	<path display="none" fill="#FEFEFE" d="M1038.99,478.54c0,125.04,0.2,250.08-0.06,375.11c-0.22,106.98-43.33,151.01-148.71,151.13
		c-251.66,0.28-503.32,0.27-754.98,0C31.26,1004.67-13.25,961.02-13.4,858.46c-0.37-253.24-0.37-506.48,0-759.73
		C-13.26-3.93,31.1-47.45,135.18-47.57c251.66-0.27,503.32-0.28,754.98,0c105.69,0.12,148.55,43.83,148.77,150.99
		C1039.19,228.46,1038.99,353.5,1038.99,478.54z M757.43,32.2c-47.36,0-94.74,0.61-142.09-0.22c-30.58-0.53-61.19,1.79-61.73,40.42
		c-0.54,38.35,29.61,42.64,60.43,42.49c74.2-0.37,148.48,1.85,222.58-0.97c34.66-1.32,41.61,10.63,40.67,42.58
		c-2.27,77.29-0.83,154.7-0.61,232.06c0.08,29.2,12.21,50.85,44.02,49.19c28.64-1.49,38.72-21.99,38.59-49.54
		c-0.47-101.04-0.69-202.09,0.08-303.13c0.29-38.57-17.72-54-55.13-53.16C855.34,33.02,806.37,32.2,757.43,32.2z M66.32,720.57
		c0,47.36-0.25,94.73,0.07,142.09c0.35,53.61,9.08,62.15,64.29,62.29c93.15,0.24,186.3-0.36,279.45,0.3
		c30.67,0.22,61.18-2.18,61.66-40.62c0.48-38.28-29.72-42.51-60.56-42.32c-71.04,0.42-142.3-3.17-213.06,1.33
		c-44.39,2.82-51.78-13.18-50.14-52.61c3.08-74.08,1.02-148.37,0.73-222.58c-0.11-29.17-12.33-50.79-44.18-49.06
		c-28.73,1.56-38.79,22.08-38.42,49.62C66.82,619.52,66.34,670.05,66.32,720.57z"/>
	<linearGradient id="SVGID_1_" gradientUnits="userSpaceOnUse" x1="772.9903" y1="163.6181" x2="868.5873" y2="163.6181">
		<stop  offset="1.198083e-07" style="stop-color:#008282"/>
		<stop  offset="1" style="stop-color:#00ABAB"/>
	</linearGradient>
	<path fill="url(#SVGID_1_)" d="M821.01,115.87c11.53,0,23.06,0.19,34.59-0.06c8.81-0.2,13.06,3.44,12.99,12.52
		c-0.18,23.8-0.13,47.61-0.02,71.41c0.03,6.49-2.34,11.32-9.09,11.67c-7.5,0.39-10.35-4.71-10.37-11.59
		c-0.05-18.22-0.39-36.46,0.14-54.67c0.22-7.53-1.42-10.34-9.58-10.03c-17.46,0.66-34.95,0.14-52.44,0.23
		c-7.26,0.04-14.36-0.97-14.24-10.01c0.13-9.1,7.34-9.65,14.54-9.52C798.69,116.01,809.85,115.87,821.01,115.87z"/>
	<linearGradient id="SVGID_2_" gradientUnits="userSpaceOnUse" x1="128.2698" y1="780.9993" x2="223.8672" y2="780.9993">
		<stop  offset="1.198083e-07" style="stop-color:#008282"/>
		<stop  offset="1" style="stop-color:#00ABAB"/>
	</linearGradient>
	<path fill="url(#SVGID_2_)" d="M128.31,780.54c0-13.56,0.12-27.13-0.04-40.69c-0.09-7.4,2.28-12.9,9.05-13.32
		c7.51-0.46,10.39,5.34,10.41,13.17c0.07,19.92,0.55,39.87-0.17,59.76c-0.39,10.59,1.36,14.88,11.82,14.12
		c16.68-1.21,33.47-0.24,50.21-0.36c7.27-0.05,14.38,1.08,14.27,11.36c-0.11,10.32-7.3,10.96-14.53,10.91
		c-21.95-0.18-43.9-0.02-65.86-0.08c-13.01-0.04-15.07-2.33-15.15-16.72C128.25,805.98,128.31,793.26,128.31,780.54z"/>
</g>
<linearGradient id="SVGID_3_" gradientUnits="userSpaceOnUse" x1="699.1122" y1="327.0056" x2="730.0322" y2="273.4506">
	<stop  offset="0" style="stop-color:#008080"/>
	<stop  offset="1" style="stop-color:#00ABAB"/>
</linearGradient>
<polygon fill="none" stroke="url(#SVGID_3_)" stroke-width="4" stroke-miterlimit="10" points="729.91,330.06 745.31,287.53 
	678.59,311.73 "/>
<linearGradient id="SVGID_4_" gradientUnits="userSpaceOnUse" x1="690.1595" y1="322.766" x2="720.838" y2="269.6293">
	<stop  offset="0" style="stop-color:#008080"/>
	<stop  offset="1" style="stop-color:#00ABAB"/>
</linearGradient>
<polygon fill="none" stroke="url(#SVGID_4_)" stroke-width="4" stroke-miterlimit="10" points="745.31,287.53 683.72,268.47 
	678.59,311.73 "/>
<linearGradient id="SVGID_5_" gradientUnits="userSpaceOnUse" x1="657.558" y1="259.6483" x2="699.133" y2="187.6384">
	<stop  offset="0" style="stop-color:#008080"/>
	<stop  offset="1" style="stop-color:#00ABAB"/>
</linearGradient>
<polygon fill="none" stroke="url(#SVGID_5_)" stroke-width="4" stroke-miterlimit="10" points="683.72,268.47 671.25,179.02 
	638.99,246.47 "/>
<linearGradient id="SVGID_6_" gradientUnits="userSpaceOnUse" x1="648.7336" y1="296.5198" x2="668.8457" y2="261.6845">
	<stop  offset="0" style="stop-color:#008080"/>
	<stop  offset="1" style="stop-color:#00ABAB"/>
</linearGradient>
<path fill="none" stroke="url(#SVGID_6_)" stroke-width="4" stroke-miterlimit="10" d="M678.59,311.73l-39.59-65.26L678.59,311.73z"
	/>
<linearGradient id="SVGID_7_" gradientUnits="userSpaceOnUse" x1="581.4287" y1="266.0955" x2="646.7495" y2="152.9566">
	<stop  offset="0" style="stop-color:#008080"/>
	<stop  offset="1" style="stop-color:#00ABAB"/>
</linearGradient>
<polygon fill="none" stroke="url(#SVGID_7_)" stroke-width="4" stroke-miterlimit="10" points="671.25,179.02 603.8,214.94 
	638.99,246.47 552.47,245.74 570.07,198.81 "/>
<linearGradient id="SVGID_8_" gradientUnits="userSpaceOnUse" x1="329.2282" y1="772.9694" x2="639.1584" y2="236.1546">
	<stop  offset="0" style="stop-color:#008080"/>
	<stop  offset="1" style="stop-color:#00ABAB"/>
</linearGradient>
<polyline fill="none" stroke="url(#SVGID_8_)" stroke-width="4" stroke-miterlimit="10" points="552.47,245.74 506.28,214.94 
	570.07,198.81 526.81,176.08 453.48,198.81 411.69,246.47 381.63,179.75 359.63,221.54 320.77,176.82 292.17,217.88 334.7,268.47 
	390.43,288.27 382.36,332.99 460.82,311 441.02,348.39 433.69,391.65 512.14,369.66 511.41,420.25 589.13,471.58 534.14,493.57 
	548.8,532.43 497.48,551.5 460.08,519.97 487.95,598.42 433.69,607.96 410.22,579.36 369.16,625.55 372.83,673.95 450.55,644.62 
	414.62,689.35 357.43,726.74 328.1,670.28 292.91,717.21 315.64,759 380.89,764.13 471.82,764.13 464.48,728.94 414.62,689.35 
	507.01,692.28 464.48,728.94 548.8,717.21 548.8,764.13 589.13,692.28 611.86,728.94 644.13,692.28 684.45,764.13 718.18,711.34 
	696.92,662.22 644.13,692.28 683.72,625.55 729.91,613.82 745.31,663.68 683.72,625.55 696.92,662.22 745.31,663.68 718.18,711.34 
	644.13,692.28 684.45,764.13 611.86,728.94 684.45,764.13 548.8,764.13 611.86,728.94 644.13,692.28 589.13,692.28 548.8,717.21 
	507.01,692.28 589.13,692.28 548.8,764.13 464.48,728.94 471.82,764.13 548.8,764.13 464.48,728.94 380.89,764.13 414.62,689.35 
	380.89,764.13 357.43,726.74 315.64,759 328.1,670.28 372.83,673.95 414.62,689.35 372.83,673.95 328.1,670.28 372.83,673.95 
	328.1,670.28 369.16,625.55 "/>
<linearGradient id="SVGID_9_" gradientUnits="userSpaceOnUse" x1="559.0293" y1="256.4326" x2="589.3272" y2="203.955">
	<stop  offset="0" style="stop-color:#008080"/>
	<stop  offset="1" style="stop-color:#00ABAB"/>
</linearGradient>
<polygon fill="none" stroke="url(#SVGID_9_)" stroke-width="4" stroke-miterlimit="10" points="603.8,214.94 552.47,245.74 
	570.07,198.81 "/>
<linearGradient id="SVGID_10_" gradientUnits="userSpaceOnUse" x1="271.1885" y1="677.4963" x2="590.7259" y2="124.0414">
	<stop  offset="0" style="stop-color:#008080"/>
	<stop  offset="1" style="stop-color:#00ABAB"/>
</linearGradient>
<polyline fill="none" stroke="url(#SVGID_10_)" stroke-width="4" stroke-miterlimit="10" points="745.31,287.53 712.32,227.41 
	683.72,268.47 670.52,173.15 526.81,176.08 506.28,214.94 552.47,245.74 411.69,246.47 453.48,198.81 381.63,179.75 359.63,221.54 
	292.17,217.88 334.7,268.47 390.43,288.27 460.82,311 382.36,332.99 441.02,348.39 512.14,369.66 471.08,430.51 511.41,420.25 
	499.68,469.38 534.14,493.57 460.08,519.97 548.8,532.43 497.48,551.5 487.95,598.42 410.22,579.36 433.69,607.96 450.55,644.62 
	369.16,625.55 372.83,673.95 357.43,726.74 "/>
<linearGradient id="SVGID_11_" gradientUnits="userSpaceOnUse" x1="457.107" y1="606.83" x2="551.035" y2="444.142">
	<stop  offset="0" style="stop-color:#008080"/>
	<stop  offset="1" style="stop-color:#00ABAB"/>
</linearGradient>
<polyline fill="none" stroke="url(#SVGID_11_)" stroke-width="4" stroke-miterlimit="10" points="410.22,579.36 460.08,519.97 
	487.95,598.42 548.8,532.43 597.93,471.58 "/>
<linearGradient id="SVGID_12_" gradientUnits="userSpaceOnUse" x1="454.4174" y1="647.2108" x2="484.0811" y2="595.8318">
	<stop  offset="0" style="stop-color:#008080"/>
	<stop  offset="1" style="stop-color:#00ABAB"/>
</linearGradient>
<line fill="none" stroke="url(#SVGID_12_)" stroke-width="4" stroke-miterlimit="10" x1="450.55" y1="644.62" x2="487.95" y2="598.42"/>
<linearGradient id="SVGID_13_" gradientUnits="userSpaceOnUse" x1="396.6743" y1="483.6825" x2="504.2188" y2="297.41">
	<stop  offset="0" style="stop-color:#008080"/>
	<stop  offset="1" style="stop-color:#00ABAB"/>
</linearGradient>
<polyline fill="none" stroke="url(#SVGID_13_)" stroke-width="4" stroke-miterlimit="10" points="460.08,519.97 499.68,469.38 
	589.13,471.58 512.14,369.66 471.08,430.51 433.69,391.65 382.36,332.99 334.7,268.47 359.63,221.54 411.69,246.47 390.43,288.27 
	460.82,311 "/>
<linearGradient id="SVGID_14_" gradientUnits="userSpaceOnUse" x1="394.2939" y1="305.3978" x2="484.8532" y2="148.5445">
	<stop  offset="0" style="stop-color:#008080"/>
	<stop  offset="1" style="stop-color:#00ABAB"/>
</linearGradient>
<polyline fill="none" stroke="url(#SVGID_14_)" stroke-width="4" stroke-miterlimit="10" points="512.14,369.66 460.45,311.36 
	411.32,246.84 334.33,268.1 291.81,217.51 320.4,176.45 380.53,175.72 526.44,176.45 505.91,215.31 471.45,245.37 453.12,199.18 "/>
<linearGradient id="SVGID_15_" gradientUnits="userSpaceOnUse" x1="685.4987" y1="214.101" x2="698.0715" y2="192.3243">
	<stop  offset="0" style="stop-color:#008080"/>
	<stop  offset="1" style="stop-color:#00ABAB"/>
</linearGradient>
<line fill="none" stroke="url(#SVGID_15_)" stroke-width="4" stroke-miterlimit="10" x1="712.32" y1="227.41" x2="671.25" y2="179.02"/>
<linearGradient id="SVGID_16_" gradientUnits="userSpaceOnUse" x1="475.8002" y1="213.9472" x2="483.962" y2="199.8104">
	<stop  offset="0" style="stop-color:#008080"/>
	<stop  offset="1" style="stop-color:#00ABAB"/>
</linearGradient>
<line fill="none" stroke="url(#SVGID_16_)" stroke-width="4" stroke-miterlimit="10" x1="453.48" y1="198.81" x2="506.28" y2="214.94"/>
<linearGradient id="SVGID_17_" gradientUnits="userSpaceOnUse" x1="480.0905" y1="460.2072" x2="490.6702" y2="441.8827">
	<stop  offset="0" style="stop-color:#008080"/>
	<stop  offset="1" style="stop-color:#00ABAB"/>
</linearGradient>
<line fill="none" stroke="url(#SVGID_17_)" stroke-width="4" stroke-miterlimit="10" x1="499.68" y1="469.38" x2="471.08" y2="432.71"/>
<linearGradient id="SVGID_18_" gradientUnits="userSpaceOnUse" x1="284.2902" y1="731.8645" x2="300.7906" y2="703.2849">
	<stop  offset="0" style="stop-color:#008080"/>
	<stop  offset="1" style="stop-color:#00ABAB"/>
</linearGradient>
<circle fill="url(#SVGID_18_)" cx="292.54" cy="717.57" r="16.5"/>
<linearGradient id="SVGID_19_" gradientUnits="userSpaceOnUse" x1="579.0491" y1="488.7723" x2="598.483" y2="455.1118">
	<stop  offset="0" style="stop-color:#008080"/>
	<stop  offset="1" style="stop-color:#00ABAB"/>
</linearGradient>
<circle fill="url(#SVGID_19_)" cx="588.77" cy="471.94" r="19.43"/>
<linearGradient id="SVGID_20_" gradientUnits="userSpaceOnUse" x1="672.72" y1="321.8926" x2="684.4537" y2="301.5693">
	<stop  offset="0" style="stop-color:#008080"/>
	<stop  offset="1" style="stop-color:#00ABAB"/>
</linearGradient>
<circle fill="url(#SVGID_20_)" cx="678.59" cy="311.73" r="11.73"/>
<linearGradient id="SVGID_21_" gradientUnits="userSpaceOnUse" x1="285.9403" y1="228.674" x2="298.4073" y2="207.0805">
	<stop  offset="0" style="stop-color:#008080"/>
	<stop  offset="1" style="stop-color:#00ABAB"/>
</linearGradient>
<circle fill="url(#SVGID_21_)" cx="292.17" cy="217.88" r="12.46"/>
<linearGradient id="SVGID_22_" gradientUnits="userSpaceOnUse" x1="726.613" y1="335.7777" x2="733.2132" y2="324.3458">
	<stop  offset="0" style="stop-color:#008080"/>
	<stop  offset="1" style="stop-color:#00ABAB"/>
</linearGradient>
<circle fill="url(#SVGID_22_)" cx="729.91" cy="330.06" r="6.6"/>
<linearGradient id="SVGID_23_" gradientUnits="userSpaceOnUse" x1="740.3609" y1="295.8397" x2="749.5278" y2="279.9621">
	<stop  offset="0" style="stop-color:#008080"/>
	<stop  offset="1" style="stop-color:#00ABAB"/>
</linearGradient>
<circle fill="url(#SVGID_23_)" cx="744.94" cy="287.9" r="9.17"/>
<linearGradient id="SVGID_24_" gradientUnits="userSpaceOnUse" x1="662.0877" y1="194.6251" x2="679.6882" y2="164.1401">
	<stop  offset="0" style="stop-color:#008080"/>
	<stop  offset="1" style="stop-color:#00ABAB"/>
</linearGradient>
<circle fill="url(#SVGID_24_)" cx="670.89" cy="179.38" r="17.6"/>
<linearGradient id="SVGID_25_" gradientUnits="userSpaceOnUse" x1="680.4194" y1="274.1862" x2="687.0196" y2="262.7543">
	<stop  offset="0" style="stop-color:#008080"/>
	<stop  offset="1" style="stop-color:#00ABAB"/>
</linearGradient>
<circle fill="url(#SVGID_25_)" cx="683.72" cy="268.47" r="6.6"/>
<linearGradient id="SVGID_26_" gradientUnits="userSpaceOnUse" x1="631.8422" y1="258.5894" x2="645.4093" y2="235.0905">
	<stop  offset="0" style="stop-color:#008080"/>
	<stop  offset="1" style="stop-color:#00ABAB"/>
</linearGradient>
<circle fill="url(#SVGID_26_)" cx="638.63" cy="246.84" r="13.56"/>
<linearGradient id="SVGID_27_" gradientUnits="userSpaceOnUse" x1="705.8987" y1="238.2551" x2="717.9991" y2="217.2967">
	<stop  offset="0" style="stop-color:#008080"/>
	<stop  offset="1" style="stop-color:#00ABAB"/>
</linearGradient>
<circle fill="url(#SVGID_27_)" cx="711.95" cy="227.78" r="12.1"/>
<linearGradient id="SVGID_28_" gradientUnits="userSpaceOnUse" x1="566.5852" y1="204.5783" x2="572.8187" y2="193.7815">
	<stop  offset="0" style="stop-color:#008080"/>
	<stop  offset="1" style="stop-color:#00ABAB"/>
</linearGradient>
<circle fill="url(#SVGID_28_)" cx="569.7" cy="199.18" r="6.23"/>
<linearGradient id="SVGID_29_" gradientUnits="userSpaceOnUse" x1="520.0245" y1="187.564" x2="532.8582" y2="165.3354">
	<stop  offset="0" style="stop-color:#008080"/>
	<stop  offset="1" style="stop-color:#00ABAB"/>
</linearGradient>
<circle fill="url(#SVGID_29_)" cx="526.44" cy="176.45" r="12.83"/>
<linearGradient id="SVGID_30_" gradientUnits="userSpaceOnUse" x1="546.7876" y1="255.3157" x2="557.4213" y2="236.8977">
	<stop  offset="0" style="stop-color:#008080"/>
	<stop  offset="1" style="stop-color:#00ABAB"/>
</linearGradient>
<circle fill="url(#SVGID_30_)" cx="552.1" cy="246.11" r="10.63"/>
<linearGradient id="SVGID_31_" gradientUnits="userSpaceOnUse" x1="446.7013" y1="210.2942" x2="459.535" y2="188.0656">
	<stop  offset="0" style="stop-color:#008080"/>
	<stop  offset="1" style="stop-color:#00ABAB"/>
</linearGradient>
<circle fill="url(#SVGID_31_)" cx="453.12" cy="199.18" r="12.83"/>
<linearGradient id="SVGID_32_" gradientUnits="userSpaceOnUse" x1="598.8472" y1="223.2498" x2="608.0141" y2="207.3722">
	<stop  offset="0" style="stop-color:#008080"/>
	<stop  offset="1" style="stop-color:#00ABAB"/>
</linearGradient>
<circle fill="url(#SVGID_32_)" cx="603.43" cy="215.31" r="9.17"/>
<linearGradient id="SVGID_33_" gradientUnits="userSpaceOnUse" x1="502.7941" y1="220.7094" x2="509.0276" y2="209.9126">
	<stop  offset="0" style="stop-color:#008080"/>
	<stop  offset="1" style="stop-color:#00ABAB"/>
</linearGradient>
<circle fill="url(#SVGID_33_)" cx="505.91" cy="215.31" r="6.23"/>
<linearGradient id="SVGID_34_" gradientUnits="userSpaceOnUse" x1="404.9071" y1="257.9543" x2="417.7408" y2="235.7256">
	<stop  offset="0" style="stop-color:#008080"/>
	<stop  offset="1" style="stop-color:#00ABAB"/>
</linearGradient>
<circle fill="url(#SVGID_34_)" cx="411.32" cy="246.84" r="12.83"/>
<linearGradient id="SVGID_35_" gradientUnits="userSpaceOnUse" x1="375.5778" y1="191.2302" x2="388.4115" y2="169.0015">
	<stop  offset="0" style="stop-color:#008080"/>
	<stop  offset="1" style="stop-color:#00ABAB"/>
</linearGradient>
<circle fill="url(#SVGID_35_)" cx="381.99" cy="180.12" r="12.83"/>
<linearGradient id="SVGID_36_" gradientUnits="userSpaceOnUse" x1="373.9277" y1="347.6021" x2="390.7949" y2="318.3873">
	<stop  offset="0" style="stop-color:#008080"/>
	<stop  offset="1" style="stop-color:#00ABAB"/>
</linearGradient>
<circle fill="url(#SVGID_36_)" cx="382.36" cy="332.99" r="16.86"/>
<linearGradient id="SVGID_37_" gradientUnits="userSpaceOnUse" x1="316.003" y1="185.0726" x2="325.5366" y2="168.56">
	<stop  offset="0" style="stop-color:#008080"/>
	<stop  offset="1" style="stop-color:#00ABAB"/>
</linearGradient>
<circle fill="url(#SVGID_37_)" cx="320.77" cy="176.82" r="9.53"/>
<linearGradient id="SVGID_38_" gradientUnits="userSpaceOnUse" x1="356.5144" y1="226.6733" x2="362.0146" y2="217.1468">
	<stop  offset="0" style="stop-color:#008080"/>
	<stop  offset="1" style="stop-color:#00ABAB"/>
</linearGradient>
<circle fill="url(#SVGID_38_)" cx="359.26" cy="221.91" r="5.5"/>
<linearGradient id="SVGID_39_" gradientUnits="userSpaceOnUse" x1="385.4767" y1="295.8397" x2="394.6437" y2="279.9621">
	<stop  offset="0" style="stop-color:#008080"/>
	<stop  offset="1" style="stop-color:#00ABAB"/>
</linearGradient>
<circle fill="url(#SVGID_39_)" cx="390.06" cy="287.9" r="9.17"/>
<linearGradient id="SVGID_40_" gradientUnits="userSpaceOnUse" x1="329.9344" y1="276.7266" x2="339.468" y2="260.2139">
	<stop  offset="0" style="stop-color:#008080"/>
	<stop  offset="1" style="stop-color:#00ABAB"/>
</linearGradient>
<circle fill="url(#SVGID_40_)" cx="334.7" cy="268.47" r="9.53"/>
<linearGradient id="SVGID_41_" gradientUnits="userSpaceOnUse" x1="430.3874" y1="397.3691" x2="436.9876" y2="385.9373">
	<stop  offset="0" style="stop-color:#008080"/>
	<stop  offset="1" style="stop-color:#00ABAB"/>
</linearGradient>
<circle fill="url(#SVGID_41_)" cx="433.69" cy="391.65" r="6.6"/>
<linearGradient id="SVGID_42_" gradientUnits="userSpaceOnUse" x1="455.1336" y1="320.5733" x2="465.7673" y2="302.1553">
	<stop  offset="0" style="stop-color:#008080"/>
	<stop  offset="1" style="stop-color:#00ABAB"/>
</linearGradient>
<circle fill="url(#SVGID_42_)" cx="460.45" cy="311.36" r="10.63"/>
<linearGradient id="SVGID_43_" gradientUnits="userSpaceOnUse" x1="504.8098" y1="382.3583" x2="519.4768" y2="356.9542">
	<stop  offset="0" style="stop-color:#008080"/>
	<stop  offset="1" style="stop-color:#00ABAB"/>
</linearGradient>
<circle fill="url(#SVGID_43_)" cx="512.14" cy="369.66" r="14.66"/>
<linearGradient id="SVGID_44_" gradientUnits="userSpaceOnUse" x1="493.6282" y1="478.8532" x2="504.9952" y2="459.165">
	<stop  offset="0" style="stop-color:#008080"/>
	<stop  offset="1" style="stop-color:#00ABAB"/>
</linearGradient>
<circle fill="url(#SVGID_44_)" cx="499.31" cy="469.01" r="11.37"/>
<linearGradient id="SVGID_45_" gradientUnits="userSpaceOnUse" x1="435.3364" y1="357.9681" x2="445.97" y2="339.5501">
	<stop  offset="0" style="stop-color:#008080"/>
	<stop  offset="1" style="stop-color:#00ABAB"/>
</linearGradient>
<circle fill="url(#SVGID_45_)" cx="440.65" cy="348.76" r="10.63"/>
<linearGradient id="SVGID_46_" gradientUnits="userSpaceOnUse" x1="450.7335" y1="536.4324" x2="470.1674" y2="502.7719">
	<stop  offset="0" style="stop-color:#008080"/>
	<stop  offset="1" style="stop-color:#00ABAB"/>
</linearGradient>
<circle fill="url(#SVGID_46_)" cx="460.45" cy="519.6" r="19.43"/>
<linearGradient id="SVGID_47_" gradientUnits="userSpaceOnUse" x1="405.6406" y1="587.5678" x2="415.5408" y2="570.42">
	<stop  offset="0" style="stop-color:#008080"/>
	<stop  offset="1" style="stop-color:#00ABAB"/>
</linearGradient>
<circle fill="url(#SVGID_47_)" cx="410.59" cy="578.99" r="9.9"/>
<linearGradient id="SVGID_48_" gradientUnits="userSpaceOnUse" x1="542.0214" y1="543.9146" x2="554.8551" y2="521.686">
	<stop  offset="0" style="stop-color:#008080"/>
	<stop  offset="1" style="stop-color:#00ABAB"/>
</linearGradient>
<circle fill="url(#SVGID_48_)" cx="548.44" cy="532.8" r="12.83"/>
<linearGradient id="SVGID_49_" gradientUnits="userSpaceOnUse" x1="508.2934" y1="425.3791" x2="513.7935" y2="415.8526">
	<stop  offset="0" style="stop-color:#008080"/>
	<stop  offset="1" style="stop-color:#00ABAB"/>
</linearGradient>
<circle fill="url(#SVGID_49_)" cx="511.04" cy="420.62" r="5.5"/>
<linearGradient id="SVGID_50_" gradientUnits="userSpaceOnUse" x1="529.1902" y1="501.8778" x2="538.3571" y2="486.0002">
	<stop  offset="0" style="stop-color:#008080"/>
	<stop  offset="1" style="stop-color:#00ABAB"/>
</linearGradient>
<circle fill="url(#SVGID_50_)" cx="533.77" cy="493.94" r="9.17"/>
<linearGradient id="SVGID_51_" gradientUnits="userSpaceOnUse" x1="494.5452" y1="556.5786" x2="500.4121" y2="546.4169">
	<stop  offset="0" style="stop-color:#008080"/>
	<stop  offset="1" style="stop-color:#00ABAB"/>
</linearGradient>
<circle fill="url(#SVGID_51_)" cx="497.48" cy="551.5" r="5.87"/>
<linearGradient id="SVGID_52_" gradientUnits="userSpaceOnUse" x1="483.1798" y1="606.6809" x2="492.7134" y2="590.1682">
	<stop  offset="0" style="stop-color:#008080"/>
	<stop  offset="1" style="stop-color:#00ABAB"/>
</linearGradient>
<circle fill="url(#SVGID_52_)" cx="487.95" cy="598.42" r="9.53"/>
<linearGradient id="SVGID_53_" gradientUnits="userSpaceOnUse" x1="363.2963" y1="635.7158" x2="375.0299" y2="615.3925">
	<stop  offset="0" style="stop-color:#008080"/>
	<stop  offset="1" style="stop-color:#00ABAB"/>
</linearGradient>
<circle fill="url(#SVGID_53_)" cx="369.16" cy="625.55" r="11.73"/>
<linearGradient id="SVGID_54_" gradientUnits="userSpaceOnUse" x1="324.802" y1="675.9972" x2="331.4022" y2="664.5653">
	<stop  offset="0" style="stop-color:#008080"/>
	<stop  offset="1" style="stop-color:#00ABAB"/>
</linearGradient>
<circle fill="url(#SVGID_54_)" cx="328.1" cy="670.28" r="6.6"/>
<linearGradient id="SVGID_55_" gradientUnits="userSpaceOnUse" x1="426.354" y1="620.6586" x2="441.021" y2="595.2545">
	<stop  offset="0" style="stop-color:#008080"/>
	<stop  offset="1" style="stop-color:#00ABAB"/>
</linearGradient>
<circle fill="url(#SVGID_55_)" cx="433.69" cy="607.96" r="14.66"/>
<linearGradient id="SVGID_56_" gradientUnits="userSpaceOnUse" x1="404.5399" y1="706.5421" x2="423.9738" y2="672.8817">
	<stop  offset="0" style="stop-color:#008080"/>
	<stop  offset="1" style="stop-color:#00ABAB"/>
</linearGradient>
<circle fill="url(#SVGID_56_)" cx="414.26" cy="689.71" r="19.43"/>
<linearGradient id="SVGID_57_" gradientUnits="userSpaceOnUse" x1="446.7018" y1="651.0182" x2="453.6686" y2="638.9513">
	<stop  offset="0" style="stop-color:#008080"/>
	<stop  offset="1" style="stop-color:#00ABAB"/>
</linearGradient>
<circle fill="url(#SVGID_57_)" cx="450.19" cy="644.98" r="6.97"/>
<linearGradient id="SVGID_58_" gradientUnits="userSpaceOnUse" x1="368.2458" y1="682.1547" x2="378.146" y2="665.0069">
	<stop  offset="0" style="stop-color:#008080"/>
	<stop  offset="1" style="stop-color:#00ABAB"/>
</linearGradient>
<circle fill="url(#SVGID_58_)" cx="373.2" cy="673.58" r="9.9"/>
<linearGradient id="SVGID_59_" gradientUnits="userSpaceOnUse" x1="309.9538" y1="768.5779" x2="320.5874" y2="750.1599">
	<stop  offset="0" style="stop-color:#008080"/>
	<stop  offset="1" style="stop-color:#00ABAB"/>
</linearGradient>
<circle fill="url(#SVGID_59_)" cx="315.27" cy="759.37" r="10.63"/>
<linearGradient id="SVGID_60_" gradientUnits="userSpaceOnUse" x1="353.5814" y1="733.1402" x2="360.5482" y2="721.0732">
	<stop  offset="0" style="stop-color:#008080"/>
	<stop  offset="1" style="stop-color:#00ABAB"/>
</linearGradient>
<circle fill="url(#SVGID_60_)" cx="357.06" cy="727.11" r="6.97"/>
<linearGradient id="SVGID_61_" gradientUnits="userSpaceOnUse" x1="371.7279" y1="780.0125" x2="390.0617" y2="748.2573">
	<stop  offset="0" style="stop-color:#008080"/>
	<stop  offset="1" style="stop-color:#00ABAB"/>
</linearGradient>
<circle fill="url(#SVGID_61_)" cx="380.89" cy="764.13" r="18.33"/>
<linearGradient id="SVGID_62_" gradientUnits="userSpaceOnUse" x1="674.3692" y1="781.3318" x2="693.8031" y2="747.6713">
	<stop  offset="0" style="stop-color:#008080"/>
	<stop  offset="1" style="stop-color:#00ABAB"/>
</linearGradient>
<circle fill="url(#SVGID_62_)" cx="684.09" cy="764.5" r="19.43"/>
<linearGradient id="SVGID_63_" gradientUnits="userSpaceOnUse" x1="459.8997" y1="737.1471" x2="469.8" y2="719.9993">
	<stop  offset="0" style="stop-color:#008080"/>
	<stop  offset="1" style="stop-color:#00ABAB"/>
</linearGradient>
<circle fill="url(#SVGID_63_)" cx="464.85" cy="728.57" r="9.9"/>
<linearGradient id="SVGID_64_" gradientUnits="userSpaceOnUse" x1="503.7106" y1="697.9941" x2="510.3108" y2="686.5623">
	<stop  offset="0" style="stop-color:#008080"/>
	<stop  offset="1" style="stop-color:#00ABAB"/>
</linearGradient>
<circle fill="url(#SVGID_64_)" cx="507.01" cy="692.28" r="6.6"/>
<linearGradient id="SVGID_65_" gradientUnits="userSpaceOnUse" x1="467.9655" y1="770.535" x2="474.9324" y2="758.468">
	<stop  offset="0" style="stop-color:#008080"/>
	<stop  offset="1" style="stop-color:#00ABAB"/>
</linearGradient>
<circle fill="url(#SVGID_65_)" cx="471.45" cy="764.5" r="6.97"/>
<linearGradient id="SVGID_66_" gradientUnits="userSpaceOnUse" x1="540.188" y1="778.7913" x2="556.6885" y2="750.2117">
	<stop  offset="0" style="stop-color:#008080"/>
	<stop  offset="1" style="stop-color:#00ABAB"/>
</linearGradient>
<circle fill="url(#SVGID_66_)" cx="548.44" cy="764.5" r="16.5"/>
<linearGradient id="SVGID_67_" gradientUnits="userSpaceOnUse" x1="584.7325" y1="699.8994" x2="593.5328" y2="684.657">
	<stop  offset="0" style="stop-color:#008080"/>
	<stop  offset="1" style="stop-color:#00ABAB"/>
</linearGradient>
<circle fill="url(#SVGID_67_)" cx="589.13" cy="692.28" r="8.8"/>
<linearGradient id="SVGID_68_" gradientUnits="userSpaceOnUse" x1="605.996" y1="739.1014" x2="617.7296" y2="718.7781">
	<stop  offset="0" style="stop-color:#008080"/>
	<stop  offset="1" style="stop-color:#00ABAB"/>
</linearGradient>
<circle fill="url(#SVGID_68_)" cx="611.86" cy="728.94" r="11.73"/>
<linearGradient id="SVGID_69_" gradientUnits="userSpaceOnUse" x1="544.9548" y1="723.6082" x2="551.9217" y2="711.5412">
	<stop  offset="0" style="stop-color:#008080"/>
	<stop  offset="1" style="stop-color:#00ABAB"/>
</linearGradient>
<circle fill="url(#SVGID_69_)" cx="548.44" cy="717.57" r="6.97"/>
<linearGradient id="SVGID_70_" gradientUnits="userSpaceOnUse" x1="636.2415" y1="705.6644" x2="651.2753" y2="679.6252">
	<stop  offset="0" style="stop-color:#008080"/>
	<stop  offset="1" style="stop-color:#00ABAB"/>
</linearGradient>
<circle fill="url(#SVGID_70_)" cx="643.76" cy="692.64" r="15.03"/>
<linearGradient id="SVGID_71_" gradientUnits="userSpaceOnUse" x1="726.613" y1="619.5383" x2="733.2132" y2="608.1065">
	<stop  offset="0" style="stop-color:#008080"/>
	<stop  offset="1" style="stop-color:#00ABAB"/>
</linearGradient>
<circle fill="url(#SVGID_71_)" cx="729.91" cy="613.82" r="6.6"/>
<linearGradient id="SVGID_72_" gradientUnits="userSpaceOnUse" x1="677.8527" y1="635.7158" x2="689.5864" y2="615.3925">
	<stop  offset="0" style="stop-color:#008080"/>
	<stop  offset="1" style="stop-color:#00ABAB"/>
</linearGradient>
<circle fill="url(#SVGID_72_)" cx="683.72" cy="625.55" r="11.73"/>
<linearGradient id="SVGID_73_" gradientUnits="userSpaceOnUse" x1="739.4442" y1="673.8438" x2="751.1778" y2="653.5205">
	<stop  offset="0" style="stop-color:#008080"/>
	<stop  offset="1" style="stop-color:#00ABAB"/>
</linearGradient>
<circle fill="url(#SVGID_73_)" cx="745.31" cy="663.68" r="11.73"/>
<linearGradient id="SVGID_74_" gradientUnits="userSpaceOnUse" x1="693.0676" y1="668.6158" x2="700.0345" y2="656.5488">
	<stop  offset="0" style="stop-color:#008080"/>
	<stop  offset="1" style="stop-color:#00ABAB"/>
</linearGradient>
<circle fill="url(#SVGID_74_)" cx="696.55" cy="662.58" r="6.97"/>
<linearGradient id="SVGID_75_" gradientUnits="userSpaceOnUse" x1="713.4146" y1="719.5986" x2="722.9482" y2="703.0859">
	<stop  offset="0" style="stop-color:#008080"/>
	<stop  offset="1" style="stop-color:#00ABAB"/>
</linearGradient>
<circle fill="url(#SVGID_75_)" cx="718.18" cy="711.34" r="9.53"/>
<linearGradient id="SVGID_76_" gradientUnits="userSpaceOnUse" x1="464.4821" y1="444.146" x2="477.6825" y2="421.2823">
	<stop  offset="0" style="stop-color:#008080"/>
	<stop  offset="1" style="stop-color:#00ABAB"/>
</linearGradient>
<circle fill="url(#SVGID_76_)" cx="471.08" cy="432.71" r="13.2"/>
</svg>
