<?xml version="1.0" encoding="utf-8"?>
<!-- Generator: Adobe Illustrator 26.3.1, SVG Export Plug-In . SVG Version: 6.00 Build 0)  -->
<svg version="1.1" id="Layer_1" xmlns="http://www.w3.org/2000/svg" xmlns:xlink="http://www.w3.org/1999/xlink" x="0px" y="0px"
	 viewBox="0 0 124 22" style="enable-background:new 0 0 124 22;" xml:space="preserve">
<style type="text/css">
	.st0{fill:url(#SVGID_1_);}
	.st1{fill:url(#SVGID_00000012451178820903038390000001120360106416683186_);}
</style>
<g>
	<g id="surface1_00000138538313720326998500000012499386426028158625_" transform="matrix(0.1653 0 0 0.1653 -25.2796 -0.7847)">
		<path d="M251,96.5c3.8,2,7.3,3.3,10.4,4.1c3.1,0.8,6.8,1.2,10.9,1.2c7.6,0,13.6-1.6,17.9-4.9c4.3-3.3,6.5-7.9,6.5-13.8
			c0-2.2-0.3-4.3-0.9-6.2c-0.6-2-1.5-3.6-2.7-4.9c-1.5-1.7-3.1-3.1-5-4c-1.8-0.9-3.9-1.8-6.3-2.7l-8.7-3.1c-3.2-1.1-4.9-1.8-5.2-2
			c-0.3-0.2-0.6-0.3-0.7-0.4c-1.4-0.9-2.2-1.7-2.5-2.5c-0.3-0.8-0.5-1.6-0.5-2.5c0-1.1,0.3-2.2,0.8-3.3c0.5-1.1,1.2-2,2-2.7
			c1.6-1.4,4-2.1,7.2-2.1c2.7,0,5.3,0.4,7.6,1.1c2.3,0.8,5.2,2.1,8.5,4l3.4-9.9c-4.6-2.5-8.4-4.1-11.3-4.7c-2.9-0.6-5.6-0.9-8.1-0.9
			c-6.8,0-12.1,1.7-16.1,5.1c-3.9,3.4-5.9,8-5.9,13.8c0,3.8,1,6.9,2.9,9.3c1.9,2.5,5.1,4.5,9.4,6.1l12.9,4.6c2.8,1,4.8,2.1,5.8,3.2
			c1,1.1,1.6,2.7,1.6,4.6c0,2.8-1,5-3,6.3c-2,1.4-4.8,2.1-8.4,2.1c-3.3,0-6.3-0.4-9-1.2c-2.7-0.8-6.1-2.2-10-4.3L251,96.5z"/>
	</g>
	<g id="surface1_00000165938757498887368220000015870371513554436226_" transform="matrix(0.1653 0 0 0.1653 -17.8809 1.7929)">
		<path d="M280.1,70.7l-10.8-29.1h-11.9l17.2,42.3l-7.1,17h11.5l23.6-59.2h-11.7L280.1,70.7z"/>
	</g>
	<g id="surface1_00000160174720730965317020000003411918854579336104_" transform="matrix(0.1653 0 0 0.1653 -10.9411 1.7447)">
		<path d="M294.9,46.1c-2.8-3.7-6.5-5.5-11.2-5.5c-2.6,0-5,0.6-7.3,1.7c-2.3,1.1-4.3,2.7-6,4.8c-1.5,1.8-2.7,4.2-3.5,7
			c-0.9,2.9-1.3,5.8-1.3,8.7c0,2.7,0.5,5.5,1.4,8.3c0.9,2.8,2.1,5.1,3.6,6.8c1.5,1.8,3.4,3.3,5.7,4.3c2.3,1.1,4.5,1.6,6.8,1.6
			c2.3,0,4.5-0.5,6.6-1.6c1.1-0.4,2-1,2.9-1.8c0.8-0.7,1.7-1.6,2.5-2.5v3.9c0,4.2-0.7,7-2,8.5c-1.3,1.5-3.9,2.3-7.7,2.3
			c-3.4,0-6.2-0.3-8.5-1c-2.3-0.7-4.8-1.6-7.5-2.7l-1.6,8.8c2.1,0.9,3.9,1.6,5.2,2c1.5,0.5,3.5,0.9,5.9,1.2c2.4,0.3,4.5,0.5,6.4,0.5
			c5.9,0,10.6-1.3,14.1-3.9c4.5-3.3,6.7-8.8,6.7-16.3V41.2h-11.1V46.1z M294.9,68.2c-1.3,2.6-2.6,4.5-4,5.7
			c-1.4,1.2-3.1,1.8-5.2,1.8c-2.8,0-5-1.2-6.6-3.5c-1.6-2.3-2.4-5.5-2.4-9.6c0-4.2,0.8-7.4,2.3-9.7c1.5-2.3,3.7-3.4,6.6-3.4
			c1.1,0,2.2,0.2,3.4,0.6c1.2,0.4,2.2,0.9,3,1.6c1.1,0.9,2,2.2,2.9,3.7V68.2z"/>
	</g>
	<g id="surface1_00000072979568473935791820000006084101669826229889_" transform="matrix(0.1653 0 0 0.1653 -1.7757 0.5547)">
		<path d="M272.2,48.4h-11.1v44.1h11.1V63.8c2.9-4.8,6.3-7.1,10.2-7.1c1.7,0,3.1,0.5,4.1,1.6c1,1.1,1.4,2.6,1.4,4.5v29.6H299V63.2
			c2.7-4.4,6-6.6,9.7-6.6c3.9,0,5.8,2.1,5.8,6.4v29.4h11.1V62.4c0-4.4-1.3-7.9-4-10.6c-2.7-2.7-6.2-4-10.5-4c-2.5,0-4.8,0.5-6.9,1.5
			c-1.7,0.8-3.1,1.8-4.2,2.9c-1.1,1.1-2.2,2.3-3.3,3.7c-0.9-2.5-2.2-4.3-3.8-5.5c-2.2-1.7-4.8-2.5-8-2.5c-2.5,0-4.8,0.6-6.9,1.7
			c-2.1,1.2-4.1,3-6,5.4V48.4z"/>
	</g>
	<g id="surface1_00000057131912744137355050000002335034384358510261_" transform="matrix(0.1653 0 0 0.1653 6.9866 0.6438)">
		<path d="M309.2,64.3c-7,0-11.6,0.1-13.7,0.4c-2.1,0.3-3.9,0.7-5.2,1.3c-2.8,1.1-5,2.9-6.6,5.3c-1.6,2.5-2.5,5.2-2.5,8.3
			c0,2.1,0.4,4.1,1.3,6.1c0.9,1.9,2,3.4,3.5,4.6c1.2,0.9,2.7,1.6,4.5,2.1c1.8,0.5,3.6,0.8,5.2,0.8c2.8,0,5.3-0.5,7.4-1.5
			c2.1-1,4.1-2.2,6.1-3.6v4.6h10.9V63.9c0-5.7-1.9-10.1-5.8-13c-1.6-1.3-3.5-2.2-5.5-2.7c-2-0.6-4.5-0.9-7.3-0.9
			c-3.2,0-6.1,0.3-8.5,1c-2.4,0.7-5.1,1.8-8,3.5l1,9.1c3.8-2.2,6.7-3.6,8.7-4.1c2-0.5,4.1-0.7,6.1-0.7c2.7,0,4.8,0.5,6.2,1.6
			s2.1,2.6,2.2,4.7L309.2,64.3z M309.2,80.3c-2.1,1.6-4,2.7-5.6,3.3c-1.6,0.6-3.3,0.9-5.2,0.9c-1.9,0-3.3-0.5-4.4-1.6
			c-1.1-1.1-1.6-2.5-1.6-4.4c0-2.7,1.4-4.7,4.3-5.8c1.3-0.5,2.8-0.9,4.7-0.9c1.9-0.1,4.5-0.2,7.9-0.2V80.3z"/>
	</g>
	<g id="surface1_00000013160341357576686500000015131499164749974701_" transform="matrix(0.1653 0 0 0.1653 18.2415 -0.7847)">
		<path d="M287.2,96.5c3.8,2,7.3,3.3,10.4,4.1c3.1,0.8,6.8,1.2,10.9,1.2c7.6,0,13.6-1.6,17.9-4.9c4.3-3.3,6.5-7.9,6.5-13.8
			c0-2.2-0.3-4.3-0.9-6.2c-0.6-2-1.5-3.6-2.7-4.9c-1.5-1.7-3.1-3.1-5-4c-1.8-0.9-3.9-1.8-6.3-2.7l-8.7-3.1c-3.2-1.1-4.9-1.8-5.2-2
			c-0.3-0.2-0.6-0.3-0.7-0.4c-1.4-0.9-2.2-1.7-2.5-2.5c-0.3-0.8-0.5-1.6-0.5-2.5c0-1.1,0.3-2.2,0.8-3.3c0.5-1.1,1.2-2,2-2.7
			c1.6-1.4,4-2.1,7.2-2.1c2.7,0,5.3,0.4,7.6,1.1c2.3,0.8,5.2,2.1,8.5,4l3.4-9.9c-4.6-2.5-8.4-4.1-11.3-4.7c-2.9-0.6-5.6-0.9-8.1-0.9
			c-6.8,0-12.1,1.7-16.1,5.1c-3.9,3.4-5.9,8-5.9,13.8c0,3.8,1,6.9,2.9,9.3c1.9,2.5,5.1,4.5,9.4,6.1l12.9,4.6c2.8,1,4.8,2.1,5.8,3.2
			c1,1.1,1.6,2.7,1.6,4.6c0,2.8-1,5-3,6.3c-2,1.4-4.8,2.1-8.4,2.1c-3.3,0-6.3-0.4-9-1.2c-2.7-0.8-6.1-2.2-10-4.3L287.2,96.5z"/>
	</g>
	<g id="surface1_00000031909453269315725750000018445726951882156219_" transform="matrix(0.1653 0 0 0.1653 24.6577 -0.4273)">
		<path d="M308.7,55H300v8.8h8.8v22.6c0.1,4.4,1.2,7.5,3.5,9.3c2.3,1.8,6.1,2.7,11.6,2.6h7v-8.8h-5.9c-1.9,0-3.1-0.3-3.9-1
			c-0.7-0.7-1.1-1.9-1.1-3.7v-21h10.9V55h-10.9V40.3l-11.1,6.3V55z"/>
	</g>
	<g id="surface1_00000059274826039994117160000006144217483744050867_" transform="matrix(0.1653 0 0 0.1653 31.0265 0.7333)">
		<path d="M340.6,48h-11.1v27.6c-0.9,1.9-2,3.5-3.4,4.8c-1.4,1.3-2.8,2.2-4.3,2.7c-1.4,0.5-2.7,0.7-3.8,0.7c-1.9,0-3.4-0.6-4.5-1.7
			c-1.1-1.1-1.6-2.6-1.6-4.5V48h-11.1v29.6c0,4.7,1.3,8.4,3.8,11.1c2.6,2.7,6.1,4,10.5,4c5.9,0,10.7-2.5,14.5-7.5v6.9h11.1V48z"/>
	</g>
	<g id="surface1_00000022531708301334812350000010293617267302823318_" transform="matrix(0.1653 0 0 0.1653 38.1032 -0.6955)">
		<path d="M335.7,100h11.1V37h-11.1v23.9c-2.6-3.7-6.4-5.5-11.6-5.5c-2.3,0-4.4,0.4-6.3,1.1c-1.9,0.7-3.6,1.8-5,3.2
			c-1.5,1.6-2.8,3.5-3.8,5.8c-1,2.3-1.7,4.5-2.1,6.8c-0.4,2.2-0.6,4.2-0.6,5.9c0,3.3,0.5,6.6,1.5,9.7c1,3.1,2.3,5.7,3.9,7.8
			c1.4,1.7,3.2,3.1,5.4,4.1c2.2,1,4.4,1.5,6.8,1.5c2.5,0,4.8-0.5,6.8-1.6c2-1,3.7-2.6,5-4.6V100z M335.7,84.1
			c-0.5,2-1.3,3.6-2.1,4.6c-1.7,2.5-4.1,3.7-7.2,3.7c-2.8,0-5-1.2-6.5-3.6c-1.5-2.4-2.2-5.9-2.2-10.4c0-5.1,1-8.9,3-11.4
			c1.5-1.9,3.6-2.8,6.3-2.8c1.1,0,2.3,0.3,3.5,0.8c1.2,0.5,2.2,1.3,2.9,2.2c0.9,1,1.7,2.6,2.4,4.8V84.1z"/>
	</g>
	<g id="surface1_00000075152795137242056220000010533207747570313123_" transform="matrix(0.1653 0 0 0.1653 43.5144 -0.7846)">
		<path d="M325.3,100.6h11.4V57.2h-11.4V100.6z M325,49.6h12.1V37.5H325V49.6z"/>
	</g>
	<g id="surface1_00000112601250917272993940000017762649345753229961_" transform="matrix(0.1653 0 0 0.1653 48.7995 0.6438)">
		<path d="M335.9,47.3c-3.2,0-6.2,0.5-8.9,1.4c-2.7,1-4.9,2.3-6.7,4.1c-2,2-3.5,4.5-4.6,7.5c-1.1,3.1-1.7,6.3-1.7,9.7
			c0,3.1,0.4,6,1.3,8.8c0.9,2.8,2,5.2,3.5,7.1c1.8,2.3,4.2,4.1,7.1,5.3c2.9,1.3,6.1,1.9,9.6,1.9c3,0,5.8-0.5,8.5-1.4
			c2.7-1,4.9-2.3,6.7-4.1c2-2,3.5-4.5,4.6-7.6c1.1-3.1,1.7-6.4,1.7-9.8c0-3.4-0.5-6.5-1.5-9.4s-2.4-5.3-4.3-7.3
			c-1.9-2-4.1-3.5-6.7-4.6C341.8,47.9,339,47.3,335.9,47.3z M335.2,56.2c3.2,0,5.7,1.2,7.5,3.7c1.9,2.5,2.8,5.9,2.8,10.1
			c0,2.1-0.3,4.2-0.8,6.2c-0.5,2-1.2,3.6-2,4.6c-0.9,1.1-2,2-3.3,2.6c-1.3,0.6-2.7,0.9-4.1,0.9c-1.1,0-2.3-0.3-3.5-0.8
			c-1.2-0.5-2.2-1.2-3-2c-1.1-1-2-2.6-2.6-4.7c-0.6-2.1-0.9-4.3-0.9-6.6c0-2.1,0.3-4.1,0.8-6c0.5-1.9,1.2-3.5,2.1-4.5
			c0.9-1.1,1.9-1.9,3.2-2.6C332.6,56.5,333.9,56.2,335.2,56.2z"/>
	</g>
</g>
<linearGradient id="SVGID_1_" gradientUnits="userSpaceOnUse" x1="105.5233" y1="16.5115" x2="116.8007" y2="16.5115" gradientTransform="matrix(1 0 0 -1 0 24)">
	<stop  offset="1.198083e-07" style="stop-color:#008282"/>
	<stop  offset="1" style="stop-color:#00ABAB"/>
</linearGradient>
<path class="st0" d="M111.2,1.8c1.4,0,2.7,0,4.1,0c1,0,1.5,0.4,1.5,1.5c0,2.8,0,5.6,0,8.5c0,0.8-0.3,1.3-1.1,1.4
	c-0.9,0-1.2-0.6-1.2-1.4c0-2.2,0-4.3,0-6.5c0-0.9-0.2-1.2-1.1-1.2c-2.1,0.1-4.1,0-6.2,0c-0.9,0-1.7-0.1-1.7-1.2
	c0-1.1,0.9-1.1,1.7-1.1C108.6,1.9,109.9,1.8,111.2,1.8z"/>
<linearGradient id="SVGID_00000046308831624036558070000008414564793941489062_" gradientUnits="userSpaceOnUse" x1="107.7948" y1="27.304" x2="119.0598" y2="27.304" gradientTransform="matrix(-1 0 0 1 124 -12.6804)">
	<stop  offset="1.198083e-07" style="stop-color:#008282"/>
	<stop  offset="1" style="stop-color:#00ABAB"/>
</linearGradient>
<path style="fill:url(#SVGID_00000046308831624036558070000008414564793941489062_);" d="M10.5,20.3c-1.4,0-2.7,0-4.1,0
	c-1,0-1.5-0.4-1.5-1.5c0-2.8,0-5.6,0-8.5C4.9,9.6,5.2,9,6,9c0.9,0,1.2,0.6,1.2,1.4c0,2.2,0,4.3,0,6.5c0,0.9,0.2,1.2,1.1,1.2
	c2.1-0.1,4.1,0,6.2,0c0.9,0,1.7,0.1,1.7,1.2c0,1.1-0.9,1.1-1.7,1.1C13.2,20.3,11.9,20.3,10.5,20.3z"/>
</svg>
