<?xml version="1.0" encoding="utf-8"?>
<!-- Generator: Adobe Illustrator 26.3.1, SVG Export Plug-In . SVG Version: 6.00 Build 0)  -->
<svg version="1.1" id="Layer_1" xmlns="http://www.w3.org/2000/svg" xmlns:xlink="http://www.w3.org/1999/xlink" x="0px" y="0px"
	 viewBox="0 0 124 22" style="enable-background:new 0 0 124 22;" xml:space="preserve">
<style type="text/css">
	.st0{fill:url(#SVGID_1_);}
	.st1{fill:url(#SVGID_00000091712566203687516240000012283355022100563093_);}
</style>
<g>
	<g>
		<g id="surface1_00000138538313720326998500000012499386426028158625_" transform="matrix(0.1653 0 0 0.1653 -25.2796 -0.7847)">
			<path d="M234.6,98.9c4.2,2.1,7.9,3.6,11.4,4.5c3.4,0.9,7.3,1.3,11.8,1.3c8.3,0,14.8-1.8,19.5-5.3c4.7-3.6,7-8.5,7-15
				c0-2.4-0.3-4.6-1-6.8c-0.7-2.1-1.7-3.9-2.9-5.3c-1.6-1.9-3.4-3.3-5.4-4.3c-2-1-4.3-1.9-6.8-2.9l-9.4-3.4c-3.4-1.2-5.3-2-5.7-2.1
				c-0.4-0.2-0.6-0.3-0.8-0.4c-1.5-1-2.4-1.9-2.8-2.7c-0.4-0.9-0.5-1.8-0.5-2.7c0-1.2,0.3-2.4,0.8-3.6c0.6-1.2,1.3-2.2,2.2-3
				c1.7-1.5,4.3-2.3,7.8-2.3c3,0,5.7,0.4,8.3,1.2c2.6,0.8,5.6,2.3,9.3,4.4l3.6-10.8c-5-2.7-9.2-4.4-12.3-5.1c-3.2-0.7-6.1-1-8.8-1
				c-7.4,0-13.2,1.8-17.5,5.5c-4.3,3.7-6.4,8.7-6.4,15c0,4.1,1.1,7.5,3.2,10.1c2.1,2.7,5.5,4.9,10.2,6.6l14,5
				c3.1,1.1,5.2,2.3,6.3,3.5c1.1,1.2,1.7,2.9,1.7,5c0,3.1-1.1,5.4-3.3,6.9c-2.2,1.5-5.2,2.3-9.2,2.3c-3.6,0-6.8-0.4-9.8-1.3
				c-3-0.9-6.6-2.4-10.9-4.7L234.6,98.9z"/>
		</g>
		<g id="surface1_00000165938757498887368220000015870371513554436226_" transform="matrix(0.1653 0 0 0.1653 -17.8809 1.7929)">
			<path d="M270.2,72.2l-11.7-31.6h-12.9l18.7,45.9l-7.8,18.4h12.5l25.6-64.4h-12.7L270.2,72.2z"/>
		</g>
		<g id="surface1_00000160174720730965317020000003411918854579336104_" transform="matrix(0.1653 0 0 0.1653 -10.9411 1.7447)">
			<path d="M289.9,45.5c-3-4-7.1-6-12.2-6c-2.8,0-5.4,0.6-8,1.8c-2.5,1.2-4.7,2.9-6.5,5.2c-1.6,2-2.9,4.5-3.8,7.7
				c-1,3.1-1.4,6.3-1.4,9.4c0,3,0.5,6,1.5,9c1,3.1,2.3,5.5,3.9,7.4c1.7,2,3.7,3.5,6.2,4.7c2.5,1.2,4.9,1.8,7.3,1.8
				c2.5,0,4.9-0.6,7.1-1.7c1.2-0.5,2.2-1.1,3.1-1.9c0.9-0.8,1.8-1.7,2.8-2.7v4.3c0,4.5-0.7,7.6-2.2,9.2c-1.4,1.6-4.2,2.4-8.3,2.4
				c-3.7,0-6.8-0.4-9.2-1.1c-2.5-0.7-5.2-1.7-8.1-2.9l-1.7,9.5c2.3,1,4.2,1.8,5.7,2.2c1.7,0.5,3.8,1,6.4,1.3c2.6,0.4,4.9,0.5,7,0.5
				c6.4,0,11.5-1.4,15.3-4.3c4.9-3.6,7.3-9.5,7.3-17.7V40.1h-12.1V45.5z M289.9,69.5c-1.4,2.8-2.8,4.9-4.4,6.2
				c-1.5,1.3-3.4,1.9-5.6,1.9c-3,0-5.4-1.3-7.1-3.8c-1.7-2.5-2.6-6-2.6-10.5c0-4.6,0.8-8.1,2.5-10.6c1.7-2.5,4-3.7,7.1-3.7
				c1.2,0,2.4,0.2,3.7,0.6c1.3,0.4,2.4,1,3.3,1.7c1.2,1,2.2,2.3,3.1,4V69.5z"/>
		</g>
		<g id="surface1_00000072979568473935791820000006084101669826229889_" transform="matrix(0.1653 0 0 0.1653 -1.7757 0.5547)">
			<path d="M270.1,47.3H258v47.9h12.1V64.1c3.1-5.2,6.8-7.7,11-7.7c1.9,0,3.4,0.6,4.4,1.8c1,1.2,1.6,2.8,1.6,4.9v32.2h12.1V63.5
				c3-4.7,6.5-7.1,10.6-7.1c4.2,0,6.3,2.3,6.3,6.9v32h12.1V62.6c0-4.7-1.4-8.6-4.4-11.5c-2.9-2.9-6.7-4.4-11.4-4.4
				c-2.7,0-5.2,0.5-7.5,1.6c-1.8,0.9-3.4,1.9-4.5,3.1c-1.2,1.2-2.4,2.5-3.6,4c-1-2.7-2.4-4.7-4.1-6c-2.4-1.8-5.3-2.8-8.6-2.8
				c-2.7,0-5.2,0.6-7.5,1.9c-2.3,1.3-4.5,3.2-6.5,5.9V47.3z"/>
		</g>
		<g id="surface1_00000057131912744137355050000002335034384358510261_" transform="matrix(0.1653 0 0 0.1653 6.9866 0.6438)">
			<path d="M314.9,64.7c-7.6,0-12.6,0.2-14.9,0.5c-2.3,0.3-4.2,0.8-5.7,1.4c-3,1.2-5.4,3.1-7.2,5.8c-1.8,2.7-2.7,5.7-2.7,9
				c0,2.3,0.5,4.5,1.4,6.6c1,2.1,2.2,3.7,3.8,5c1.3,0.9,3,1.7,4.9,2.3c2,0.6,3.9,0.8,5.7,0.8c3.1,0,5.7-0.5,8-1.6
				c2.3-1.1,4.4-2.4,6.6-4v5h11.8V64.2c0-6.2-2.1-11-6.3-14.2c-1.8-1.4-3.8-2.4-6-3c-2.2-0.6-4.9-0.9-8-0.9c-3.5,0-6.6,0.4-9.2,1.1
				c-2.6,0.7-5.5,2-8.7,3.8l1.1,9.9c4.1-2.4,7.2-3.9,9.5-4.4c2.2-0.5,4.4-0.8,6.6-0.8c3,0,5.2,0.6,6.7,1.7s2.3,2.9,2.4,5.1
				L314.9,64.7z M314.9,82.1c-2.3,1.7-4.3,2.9-6.1,3.6c-1.7,0.7-3.6,1-5.7,1c-2,0-3.6-0.6-4.8-1.7c-1.2-1.2-1.8-2.7-1.8-4.8
				c0-3,1.6-5.1,4.7-6.3c1.4-0.6,3.1-0.9,5.1-1c2-0.1,4.9-0.2,8.6-0.2V82.1z"/>
		</g>
		<g id="surface1_00000013160341357576686500000015131499164749974701_" transform="matrix(0.1653 0 0 0.1653 18.2415 -0.7847)">
			<path d="M296.9,98.9c4.2,2.1,7.9,3.6,11.4,4.5c3.4,0.9,7.3,1.3,11.8,1.3c8.3,0,14.8-1.8,19.5-5.3c4.7-3.6,7-8.5,7-15
				c0-2.4-0.3-4.6-1-6.8c-0.7-2.1-1.6-3.9-2.9-5.3c-1.6-1.9-3.4-3.3-5.4-4.3c-2-1-4.3-1.9-6.8-2.9l-9.4-3.4c-3.4-1.2-5.3-2-5.7-2.1
				c-0.4-0.2-0.6-0.3-0.8-0.4c-1.5-1-2.4-1.9-2.8-2.7c-0.4-0.9-0.5-1.8-0.5-2.7c0-1.2,0.3-2.4,0.8-3.6c0.6-1.2,1.3-2.2,2.2-3
				c1.7-1.5,4.3-2.3,7.8-2.3c3,0,5.7,0.4,8.3,1.2c2.6,0.8,5.6,2.3,9.3,4.4l3.7-10.8c-5-2.7-9.2-4.4-12.3-5.1c-3.2-0.7-6.1-1-8.8-1
				c-7.4,0-13.2,1.8-17.5,5.5c-4.3,3.7-6.4,8.7-6.4,15c0,4.1,1,7.5,3.2,10.1c2.1,2.7,5.5,4.9,10.2,6.6l14,5c3.1,1.1,5.2,2.3,6.3,3.5
				c1.1,1.2,1.7,2.9,1.7,5c0,3.1-1.1,5.4-3.3,6.9c-2.2,1.5-5.3,2.3-9.2,2.3c-3.6,0-6.8-0.4-9.8-1.3c-3-0.9-6.6-2.4-10.9-4.7
				L296.9,98.9z"/>
		</g>
		<g id="surface1_00000031909453269315725750000018445726951882156219_" transform="matrix(0.1653 0 0 0.1653 24.6577 -0.4273)">
			<path d="M323.7,54h-9.5v9.6h9.5v24.6c0.1,4.8,1.3,8.2,3.8,10.2c2.5,2,6.7,2.9,12.6,2.8h7.6v-9.6h-6.4c-2,0-3.4-0.4-4.2-1.1
				c-0.8-0.7-1.2-2.1-1.2-4.1V63.6h11.8V54h-11.8V38l-12.1,6.9V54z"/>
		</g>
		<g id="surface1_00000059274826039994117160000006144217483744050867_" transform="matrix(0.1653 0 0 0.1653 31.0265 0.7333)">
			<path d="M361.7,47h-12.1v30c-1,2-2.2,3.8-3.7,5.2c-1.5,1.4-3.1,2.4-4.6,2.9c-1.5,0.5-2.9,0.8-4.2,0.8c-2.1,0-3.7-0.6-4.9-1.8
				c-1.2-1.2-1.8-2.9-1.8-4.9V47h-12.1v32.1c0,5.1,1.4,9.1,4.2,12c2.8,2.9,6.6,4.4,11.4,4.4c6.4,0,11.7-2.7,15.8-8.1v7.5h12.1V47z"
				/>
		</g>
		<g id="surface1_00000022531708301334812350000010293617267302823318_" transform="matrix(0.1653 0 0 0.1653 38.1032 -0.6955)">
			<path d="M360.1,102.8h12.1V34.2h-12.1v26c-2.8-4-7-6-12.6-6c-2.5,0-4.8,0.4-6.9,1.2c-2.1,0.8-3.9,2-5.4,3.5
				c-1.7,1.7-3.1,3.8-4.2,6.3c-1.1,2.5-1.9,4.9-2.3,7.3c-0.4,2.4-0.6,4.6-0.6,6.4c0,3.6,0.5,7.1,1.6,10.5c1.1,3.4,2.5,6.2,4.3,8.5
				c1.5,1.9,3.5,3.4,5.8,4.4c2.3,1.1,4.8,1.6,7.4,1.6c2.7,0,5.2-0.6,7.4-1.7c2.2-1.1,4-2.8,5.4-5V102.8z M360.1,85.5
				c-0.6,2.2-1.4,3.9-2.3,5c-1.8,2.7-4.5,4-7.8,4c-3.1,0-5.4-1.3-7.1-4c-1.6-2.6-2.4-6.4-2.4-11.3c0-5.6,1.1-9.7,3.2-12.4
				c1.6-2,3.9-3,6.9-3c1.2,0,2.5,0.3,3.8,0.9c1.3,0.6,2.4,1.4,3.2,2.4c1,1.1,1.9,2.8,2.6,5.2V85.5z"/>
		</g>
		<g id="surface1_00000075152795137242056220000010533207747570313123_" transform="matrix(0.1653 0 0 0.1653 43.5144 -0.7846)">
			<path d="M351.6,103.3H364V56.1h-12.4V103.3z M351.3,48h13.2V34.8h-13.2V48z"/>
		</g>
		<g id="surface1_00000112601250917272993940000017762649345753229961_" transform="matrix(0.1653 0 0 0.1653 48.7995 0.6438)">
			<path d="M365.9,46.2c-3.5,0-6.7,0.5-9.7,1.6c-2.9,1-5.4,2.5-7.3,4.4c-2.1,2.1-3.8,4.9-5,8.2c-1.2,3.3-1.8,6.8-1.8,10.5
				c0,3.3,0.5,6.5,1.4,9.6c0.9,3.1,2.2,5.7,3.8,7.7c2,2.5,4.5,4.4,7.7,5.8c3.2,1.4,6.7,2,10.5,2c3.3,0,6.3-0.5,9.2-1.6
				c2.9-1,5.3-2.5,7.3-4.4c2.1-2.1,3.8-4.9,5-8.3c1.2-3.4,1.8-6.9,1.8-10.7c0-3.7-0.5-7.1-1.6-10.2c-1.1-3.1-2.6-5.8-4.6-7.9
				c-2-2.2-4.5-3.8-7.3-5C372.4,46.8,369.3,46.2,365.9,46.2z M365.2,55.8c3.4,0,6.2,1.3,8.2,4c2,2.7,3,6.4,3,11
				c0,2.3-0.3,4.6-0.9,6.8c-0.6,2.2-1.3,3.9-2.2,5c-0.9,1.2-2.1,2.1-3.6,2.8c-1.4,0.7-2.9,1-4.5,1c-1.2,0-2.5-0.3-3.8-0.8
				c-1.3-0.6-2.4-1.3-3.3-2.2c-1.2-1.1-2.1-2.8-2.8-5.1c-0.7-2.3-1-4.7-1-7.2c0-2.3,0.3-4.4,0.9-6.5c0.6-2.1,1.3-3.8,2.3-4.9
				c1-1.2,2.1-2.1,3.5-2.8C362.3,56.1,363.7,55.8,365.2,55.8z"/>
		</g>
	</g>
	
		<linearGradient id="SVGID_1_" gradientUnits="userSpaceOnUse" x1="110.5903" y1="16.7837" x2="122.8483" y2="16.7837" gradientTransform="matrix(1 0 0 -1 0 24)">
		<stop  offset="1.198083e-07" style="stop-color:#008282"/>
		<stop  offset="1" style="stop-color:#00ABAB"/>
	</linearGradient>
	<path class="st0" d="M116.7,1.1c1.5,0,3,0,4.4,0c1.1,0,1.7,0.4,1.7,1.6c0,3.1,0,6.1,0,9.2c0,0.8-0.3,1.5-1.2,1.5
		c-1,0.1-1.3-0.6-1.3-1.5c0-2.3-0.1-4.7,0-7c0-1-0.2-1.3-1.2-1.3c-2.2,0.1-4.5,0-6.7,0c-0.9,0-1.8-0.1-1.8-1.3
		c0-1.2,0.9-1.2,1.9-1.2C113.9,1.1,115.3,1.1,116.7,1.1z"/>
	
		<linearGradient id="SVGID_00000088090574048970176870000013176320968054965183_" gradientUnits="userSpaceOnUse" x1="110.4941" y1="27.6524" x2="122.7386" y2="27.6524" gradientTransform="matrix(-1 0 0 1 124 -12.6804)">
		<stop  offset="1.198083e-07" style="stop-color:#008282"/>
		<stop  offset="1" style="stop-color:#00ABAB"/>
	</linearGradient>
	<path style="fill:url(#SVGID_00000088090574048970176870000013176320968054965183_);" d="M7.4,21.1c-1.5,0-3,0-4.4,0
		c-1.1,0-1.7-0.4-1.7-1.6c0-3.1,0-6.1,0-9.2c0-0.8,0.3-1.5,1.2-1.5c1-0.1,1.3,0.6,1.3,1.5c0,2.3,0,4.7,0,7c0,1,0.2,1.3,1.2,1.3
		c2.2-0.1,4.5,0,6.7,0c0.9,0,1.8,0.1,1.8,1.3c0,1.2-0.9,1.2-1.9,1.2C10.2,21.1,8.8,21.1,7.4,21.1z"/>
</g>
</svg>
